<svg xmlns="http://www.w3.org/2000/svg" viewBox="0 0 512 512">
  <defs>
    <linearGradient id="grad1" x1="0%" y1="0%" x2="100%" y2="100%">
      <stop offset="0%" style="stop-color:#1e40af;stop-opacity:1" />
      <stop offset="100%" style="stop-color:#172554;stop-opacity:1" />
    </linearGradient>
    <filter id="shadow" x="-20%" y="-20%" width="140%" height="140%">
      <feDropShadow dx="2" dy="4" stdDeviation="4" flood-opacity="0.3"/>
    </filter>
  </defs>
  
  <!-- Fundo -->
  <rect width="512" height="512" rx="128" fill="url(#grad1)"/>
  
  <!-- Tampa da Caixa -->
  <path d="M96 112h320c17.7 0 32-14.3 32-32V64c0-17.7-14.3-32-32-32H96C78.3 32 64 46.3 64 64v16c0 17.7 14.3 32 32 32z" fill="#93c5fd"/>
  
  <!-- Corpo da Caixa -->
  <path d="M432 144H80c-8.8 0-16 7.2-16 16v272c0 35.3 28.7 64 64 64h256c35.3 0 64-28.7 64-64V160c0-8.8-7.2-16-16-16z" fill="#ffffff" filter="url(#shadow)"/>
  
  <!-- Detalhes da Caixa (Etiqueta/Fechadura) -->
  <rect x="192" y="200" width="128" height="120" rx="8" fill="#e5e7eb"/>
  <rect x="208" y="220" width="96" height="16" rx="4" fill="#9ca3af"/>
  <rect x="208" y="250" width="70" height="16" rx="4" fill="#9ca3af"/>
  <rect x="208" y="280" width="80" height="16" rx="4" fill="#9ca3af"/>
  
  <!-- Checkmark decorativo -->
  <circle cx="380" cy="380" r="50" fill="#2563eb"/>
  <path d="M355 380l15 15 35-35" stroke="white" stroke-width="8" stroke-linecap="round" stroke-linejoin="round" fill="none"/>
</svg>